<?xml version="1.0" encoding="UTF-8" standalone="no" ?>
<!DOCTYPE svg PUBLIC "-//W3C//DTD SVG 1.1//EN" "http://www.w3.org/Graphics/SVG/1.1/DTD/svg11.dtd">
<svg xmlns="http://www.w3.org/2000/svg" xmlns:xlink="http://www.w3.org/1999/xlink" version="1.1" width="700" height="530" viewBox="0 0 700 530" xml:space="preserve">
<desc>Created with Fabric.js 5.2.4</desc>
<defs>
</defs>
<g transform="matrix(1 0 0 1 350 265)" id="f5799f1a-3bcb-4fd8-9cf2-2e3dcdf452ef"  >
<rect style="stroke: none; stroke-width: 1; stroke-dasharray: none; stroke-linecap: butt; stroke-dashoffset: 0; stroke-linejoin: miter; stroke-miterlimit: 4; fill: rgb(255,255,255); fill-rule: nonzero; opacity: 1; visibility: hidden;" vector-effect="non-scaling-stroke"  x="-350" y="-265" rx="0" ry="0" width="700" height="530" />
</g>
<g transform="matrix(Infinity NaN NaN Infinity 0 0)" id="22064df3-43ec-4273-b137-f1e6f788a0f5"  >
</g>
<g transform="matrix(0.9 0 0 0.9 350 265)"  >
<g style="" vector-effect="non-scaling-stroke"   >
		<g transform="matrix(1.33 0 0 1.33 -0.01 -221.67)"  >
<path style="stroke: none; stroke-width: 1; stroke-dasharray: none; stroke-linecap: butt; stroke-dashoffset: 0; stroke-linejoin: miter; stroke-miterlimit: 4; fill: rgb(0,0,0); fill-rule: nonzero; opacity: 1;" vector-effect="non-scaling-stroke"  transform=" translate(-349.99, -113.75)" d="M 286.39 150.76 C 288.4486 149.54909999999998 289.9212 147.553 290.4681 145.22879999999998 L 302.1981 95.49879999999999 L 343.9991 134.81079999999997 L 343.9991 134.80689399999997 C 347.3702 137.97879399999997 352.6202 137.97879399999997 355.9911 134.80689399999997 L 397.7921 95.49489399999997 L 409.5221 145.22189399999996 L 409.5221 145.22579999999996 C 410.06898 147.54609999999997 411.53770000000003 149.54609999999997 413.59630000000004 150.75699999999998 C 415.65100000000007 151.9679 418.11190000000005 152.2882 420.40880000000004 151.63590999999997 L 479.15080000000006 135.09690999999998 L 469.6000000000001 157.49890999999997 L 488.6230000000001 157.49890999999997 L 502.4160000000001 125.15490999999997 L 502.4199060000001 125.15490999999997 C 503.74020600000006 122.05720999999997 503.1620960000001 118.47910999999998 500.9394060000001 115.94790999999998 C 498.7167060000001 113.42060999999998 495.24020600000006 112.39320999999998 491.9980060000001 113.30340999999999 L 424.4590060000001 132.31540999999999 L 411.3460060000001 76.74140999999999 C 410.6311660000001 73.69840999999998 408.3460060000001 71.27260999999999 405.3538060000001 70.37030999999999 C 402.36160600000005 69.47187 399.1155060000001 70.23358999999999 396.83820600000007 72.37420999999999 L 349.9942060000001 116.42520999999999 L 303.1502060000001 72.37420999999999 C 300.87290600000006 70.23360999999998 297.6268060000001 69.47191 294.6346060000001 70.37030999999999 C 291.64240600000005 71.27264999999998 289.35730600000005 73.69841 288.64240600000005 76.74140999999999 L 275.52940600000005 132.32341 L 207.99040600000006 113.30341 C 204.74820600000007 112.39325 201.27160600000008 113.4206 199.04900600000008 115.94791 C 196.82630600000007 118.47910999999999 196.24820600000007 122.05730999999999 197.56850600000007 125.15491 L 211.36150600000008 157.49891 L 230.38850600000006 157.49891 L 220.83770600000005 135.10390999999998 L 279.57970600000004 151.64290999999997 L 279.57970600000004 151.63900399999997 C 281.87270600000005 152.28744399999997 284.33360600000003 151.97103399999997 286.38830600000006 150.76009399999998 z" stroke-linecap="round" />
</g>
		<g transform="matrix(1.33 0 0 1.33 0 215.78)"  >
<path style="stroke: none; stroke-width: 1; stroke-dasharray: none; stroke-linecap: butt; stroke-dashoffset: 0; stroke-linejoin: miter; stroke-miterlimit: 4; fill: rgb(0,0,0); fill-rule: nonzero; opacity: 1;" vector-effect="non-scaling-stroke"  transform=" translate(-350, -441.83)" d="M 208.54 393.75 L 197.364 425.805 C 196.2624 428.973 197.06322 432.4886 199.4265 434.85970000000003 C 201.7937 437.23470000000003 205.3054 438.04720000000003 208.4773 436.9574 L 275.2783 413.9534 L 288.5713 482.90639999999996 C 289.20411 486.1955 291.66110000000003 488.83219999999994 294.8916 489.70329999999996 C 298.126 490.57048999999995 301.5713 489.51971 303.77049999999997 486.9924 L 350.0005 433.81239999999997 L 396.2305 486.9924 C 398.4297 489.5197 401.875 490.5705 405.1094 489.70329999999996 C 408.3399 488.83221 410.7969 486.1955 411.42969999999997 482.90639999999996 L 424.7267 413.94939999999997 L 491.52369999999996 436.9534 C 494.69559999999996 438.0432 498.2073 437.23073999999997 500.57449999999994 434.8557 C 502.9377999999999 432.4846 503.73859999999996 428.9651 502.63699999999994 425.801 L 491.46099999999996 393.75 L 472.92999999999995 393.75 L 480.17999999999995 414.535 L 420.895 394.12100000000004 C 420.36766 393.94522000000006 419.8247 393.82022000000006 419.27779999999996 393.74991000000006 L 416.87159999999994 393.74991000000006 C 413.14109999999994 394.21866000000006 410.14109999999994 397.04291000000006 409.45359999999994 400.73431000000005 L 397.64859999999993 461.94531000000006 L 356.6055999999999 414.73431000000005 L 356.6055999999999 414.738216 C 354.89469999999994 412.910116 352.5039999999999 411.871016 350.0000999999999 411.871016 C 347.49619999999993 411.871016 345.1055999999999 412.910116 343.3945999999999 414.738216 L 302.34759999999994 461.94921600000004 L 290.54659999999996 400.738216 C 289.71457 396.33981600000004 285.67549999999994 393.29681600000004 281.21459999999996 393.70301600000005 C 281.10132 393.706922 280.98803999999996 393.71864100000005 280.87476 393.71864100000005 L 280.87476 393.722547 C 280.2732 393.79286 279.67946 393.929577 279.10526 394.124887 L 219.82425999999998 414.538887 L 227.07036 393.749887 z" stroke-linecap="round" />
</g>
		<g transform="matrix(1.33 0 0 1.33 -198.34 -5.84)"  >
<path style="stroke: none; stroke-width: 1; stroke-dasharray: none; stroke-linecap: butt; stroke-dashoffset: 0; stroke-linejoin: miter; stroke-miterlimit: 4; fill: rgb(0,0,0); fill-rule: nonzero; opacity: 1;" vector-effect="non-scaling-stroke"  transform=" translate(-201.25, -275.62)" d="M 78.734 238.76 L 104 238.802969 C 110.25 239.060779 116.27 236.443569 120.348 231.701369 L 147.875 199.588369 L 147.875 199.592275 C 151.8008 195.053175 157.5156 192.463375 163.516 192.498475 L 246.01999999999998 192.498475 C 249.08639999999997 192.39300500000002 251.65669999999997 194.78367500000002 251.77779999999998 197.84617500000002 L 251.77779999999998 256.29517500000003 C 251.79733099999999 259.97487500000005 250.41449999999998 263.52567500000004 247.91449999999998 266.22487500000005 C 245.41449999999998 268.9240750000001 241.98089999999996 270.5764750000001 238.30899999999997 270.83817500000004 C 234.21519999999998 271.135055 230.18009999999998 269.70927500000005 227.17999999999998 266.904575 C 224.42999999999998 264.36937500000005 222.8636 260.799075 222.85969999999998 257.06077500000004 L 222.85969999999998 228.86577500000004 C 222.85969999999998 224.03377500000005 218.94169999999997 220.11577500000004 214.10969999999998 220.11577500000004 L 188.00469999999999 220.11577500000004 C 183.1727 220.11577500000004 179.25469999999999 224.03377500000005 179.25469999999999 228.86577500000004 L 179.25469999999999 250.48677500000005 C 179.11016999999998 255.13127500000004 175.243 258.7836750000001 170.59849999999997 258.6586750000001 L 150.28949999999998 258.6586750000001 L 150.29340699999997 258.6586750000001 C 145.46140699999998 258.6586750000001 141.54340699999997 262.5766750000001 141.54340699999997 267.4086750000001 C 141.54340699999997 272.24067500000007 145.46140699999998 276.1586750000001 150.29340699999997 276.1586750000001 L 170.60240699999997 276.1586750000001 L 170.59850099999997 276.1586750000001 C 177.46960099999998 276.2133630000001 184.08250099999998 273.5453750000001 188.98550099999997 268.7328750000001 C 193.88850099999996 263.9203750000001 196.68470099999996 257.3578750000001 196.75500099999996 250.48687500000008 L 196.75500099999996 237.61587500000007 L 205.36050099999997 237.61587500000007 L 205.36050099999997 257.06087500000007 C 205.34487599999997 265.6350750000001 208.91130099999998 273.8268750000001 215.19640099999998 279.65487500000006 C 219.352601 283.53377500000005 224.46590099999997 286.23687500000005 230.008401 287.4946750000001 C 230.313091 288.2524850000001 230.652931 288.9907750000001 231.02010099999998 289.7094750000001 C 226.57480099999998 291.9321750000001 222.83650099999997 295.3500750000001 220.219101 299.5727750000001 C 217.60580099999999 303.7993750000001 216.215201 308.67047500000007 216.207401 313.63877500000007 L 216.207401 317.49817500000006 C 216.207401 322.1153750000001 217.410501 326.6504750000001 219.695701 330.66217500000005 C 212.55120100000002 335.27157500000004 208.25770100000003 343.2091750000001 208.308701 351.71317500000004 C 208.308701 354.095975 208.66026100000002 356.467075 209.347801 358.748375 L 146.214801 358.748375 L 119.593801 334.760375 C 115.914101 331.428375 111.125001 329.580675 106.155801 329.580675 L 80.62480099999999 329.580675 C 75.792801 329.580675 71.87480099999999 333.498675 71.87480099999999 338.330675 C 71.87480099999999 343.162675 75.792801 347.080675 80.62480099999999 347.080675 L 106.155801 347.080675 C 106.792521 347.084582 107.405801 347.32676499999997 107.874601 347.75645499999996 L 136.995601 373.998455 C 138.605001 375.44375499999995 140.690901 376.248455 142.855001 376.248455 L 280.30500099999995 376.248455 C 286.86750099999995 376.22111099999995 293.15300099999996 373.572655 297.7580009999999 368.892955 C 302.3635009999999 364.21325499999995 304.91420099999993 357.892955 304.8400009999999 351.326955 C 304.83609499999994 348.334755 304.2775009999999 345.366055 303.1994009999999 342.576955 C 308.3127009999999 340.666755 312.7228009999999 337.244955 315.8444009999999 332.764455 C 318.9616009999999 328.283955 320.6335009999999 322.955855 320.6452009999999 317.498455 L 320.6452009999999 313.639055 C 320.6412949999999 309.408555 319.63350099999985 305.240655 317.69600099999985 301.483055 C 322.1413009999998 299.25645499999996 325.8757009999999 295.842455 328.4930009999999 291.61585499999995 C 331.10630099999986 287.393155 332.4930009999999 282.52205499999997 332.50080099999985 277.55385499999994 L 332.50080099999985 273.69055499999996 L 332.50080099999985 273.69446099999993 C 332.49298899999985 268.72566099999995 331.10630099999986 263.8546609999999 328.4930009999999 259.6324609999999 C 325.87580099999985 255.40586099999993 322.14140099999986 251.99186099999991 317.69600099999985 249.76526099999992 C 319.63350099999985 246.00746099999992 320.6413009999998 241.83946099999991 320.6452009999999 237.60926099999992 L 320.6452009999999 233.74986099999992 C 320.63738899999987 226.64826099999993 317.8132009999999 219.83586099999994 312.78970099999987 214.81186099999994 C 307.7663009999999 209.79236099999994 300.95370099999985 206.96416099999993 293.8517009999999 206.95636099999993 L 269.27770099999987 206.95636099999993 L 269.27770099999987 197.84696099999994 C 269.21520099999987 191.73756099999994 266.7308009999999 185.89796099999992 262.37150099999985 181.61696099999995 C 258.01210099999986 177.33176099999994 252.13350099999985 174.95286099999996 246.01950099999985 174.99976099999995 L 163.51550099999986 174.99976099999995 C 152.40650099999985 174.96069899999995 141.83550099999985 179.78496099999995 134.58550099999985 188.20276099999995 L 107.05850099999985 220.31576099999995 L 107.05850099999985 220.31185499999995 C 106.35147099999985 221.03451499999994 105.35540099999984 221.40165499999995 104.35150099999986 221.30794499999996 L 78.76950099999985 221.26106999999996 L 78.74996999999985 221.26106999999996 C 73.91796999999985 221.25716299999996 69.99606999999985 225.17126999999996 69.99216999999985 230.00326999999996 C 69.98826299999985 234.83526999999995 73.90236999999985 238.75716999999995 78.73436999999984 238.76106999999996 z M 268.214 264.401 L 305.71 264.401 C 310.83889999999997 264.404906 314.99519999999995 268.56510000000003 315.003 273.694 L 315.003 277.5573 L 315.003 277.553394 C 314.995188 282.682294 310.83889999999997 286.84249400000004 305.71 286.84639400000003 L 254.85799999999998 286.84639400000003 C 253.25249999999997 286.83858200000003 251.67829999999998 286.40889400000003 250.2916 285.59639400000003 C 259.1627 281.60809400000005 265.7526 273.815394 268.20959999999997 264.40139400000004 z M 303.148 313.639 L 303.148 317.4984 C 303.140188 322.6273 298.9839 326.7836 293.855 326.7914 L 243.007 326.7914 C 237.87810000000002 326.783587 233.71790000000001 322.6273 233.7101 317.4984 L 233.7101 313.639 C 233.717913 308.5101 237.87810000000002 304.35380000000004 243.007 304.346 L 293.855 304.346 C 298.9839 304.353813 303.1402 308.5101 303.148 313.639 z M 232.84700000000004 358.748 C 230.92120000000003 358.72065599999996 229.08920000000003 357.91988 227.76500000000004 356.52139999999997 C 226.44080000000005 355.123 225.73380000000003 353.2519 225.81190000000004 351.3261 C 225.81580600000004 347.4433 228.96420000000003 344.2949 232.84710000000004 344.2909 L 280.3081 344.2909 C 282.2339 344.314337 284.0659 345.11902000000003 285.3901 346.51750000000004 C 286.71430000000004 347.91200000000003 287.42130000000003 349.78700000000003 287.3432 351.7128 C 287.33929400000005 355.5956 284.1909 358.744 280.30800000000005 358.748 z M 293.855 224.458 C 298.9839 224.465813 303.1402 228.6221 303.148 233.751 L 303.148 237.6104 C 303.140188 242.7393 298.9839 246.8956 293.855 246.9034 L 269.281 246.9034 L 269.281 224.4584 z" stroke-linecap="round" />
</g>
		<g transform="matrix(1.33 0 0 1.33 198.34 -5.83)"  >
<path style="stroke: none; stroke-width: 1; stroke-dasharray: none; stroke-linecap: butt; stroke-dashoffset: 0; stroke-linejoin: miter; stroke-miterlimit: 4; fill: rgb(0,0,0); fill-rule: nonzero; opacity: 1;" vector-effect="non-scaling-stroke"  transform=" translate(-498.75, -275.63)" d="M 430.72 197.85 L 430.72 206.9594 L 406.146 206.9594 C 399.0444 206.967213 392.232 209.79139999999998 387.208 214.8149 C 382.18460000000005 219.8383 379.36030000000005 226.6509 379.3525 233.75289999999998 L 379.3525 237.61229999999998 C 379.356406 241.84279999999998 380.36420000000004 246.01069999999999 382.30170000000004 249.76829999999998 C 377.85640000000006 251.99489999999997 374.122 255.4089 371.5047 259.6355 C 368.89140000000003 263.85819999999995 367.5047 268.72929999999997 367.49690000000004 273.6975 L 367.49690000000004 277.5608 L 367.49690000000004 277.556894 C 367.50471200000004 282.525694 368.89140000000003 287.396694 371.5047 291.618894 C 374.12190000000004 295.84549400000003 377.85630000000003 299.259494 382.30170000000004 301.48609400000004 C 380.36420000000004 305.243894 379.35640000000006 309.411894 379.3525 313.64209400000004 L 379.3525 317.50149400000004 C 379.36421900000005 322.95849400000003 381.03610000000003 328.28249400000004 384.1533 332.76349400000004 C 387.2666 337.24399400000004 391.6767 340.66579400000006 396.7903 342.57599400000004 C 395.7161 345.35719400000005 395.1614 348.314294 395.1575 351.294794 L 395.1575 351.751824 C 395.165313 356.829924 396.7513 361.774824 399.68870000000004 365.911824 C 402.6301 370.04852400000004 406.77850000000007 373.17352400000004 411.56770000000006 374.849324 C 412.97390000000007 375.76338400000003 414.61460000000005 376.247724 416.29040000000003 376.25162400000005 L 557.1504 376.25162400000005 L 557.146493 376.25162400000005 C 559.3105929999999 376.25162400000005 561.396493 375.44693400000006 563.005893 374.00162400000005 L 592.130893 347.75962400000003 C 592.599643 347.32993400000004 593.208993 347.087754 593.845693 347.08384400000006 L 619.3766929999999 347.08384400000006 C 624.2086929999999 347.08384400000006 628.1266929999999 343.16584400000005 628.1266929999999 338.33384400000006 C 628.1266929999999 333.50184400000006 624.2086929999999 329.58384400000006 619.3766929999999 329.58384400000006 L 593.845693 329.58384400000006 C 588.880893 329.58384400000006 584.0917929999999 331.43154400000003 580.411693 334.7635440000001 L 553.786693 358.7515440000001 L 490.661693 358.7515440000001 C 491.345283 356.4820440000001 491.692893 354.1226440000001 491.692893 351.7515440000001 L 491.692893 351.2945140000001 C 491.685081 342.9195140000001 487.39599300000003 335.1305140000001 480.32189300000005 330.6425140000001 C 482.59919300000007 326.63861400000013 483.794593 322.10731400000014 483.794593 317.5015140000001 L 483.794593 313.6421140000001 C 483.78678 308.6733140000001 482.39619300000004 303.8023140000001 479.782893 299.57611400000013 C 477.165693 295.35341400000016 473.427393 291.9355140000001 468.981893 289.71281400000015 C 469.352983 288.99015400000013 469.688923 288.25191400000017 469.99359300000003 287.49401400000016 L 469.99359300000003 287.49792000000014 C 475.53659300000004 286.2362200000001 480.645593 283.5331200000001 484.80559300000004 279.6581200000001 C 491.090793 273.8300200000001 494.65719300000006 265.63812000000013 494.641493 257.0641200000001 L 494.641493 237.61912000000012 L 503.24699300000003 237.61912000000012 L 503.24699300000003 250.49012000000013 C 503.31730500000003 257.3612200000001 506.11419300000006 263.92412000000013 511.016493 268.73612000000014 C 515.918793 273.54812000000015 522.532493 276.21662000000015 529.403493 276.1619200000001 L 549.712493 276.1619200000001 L 549.708586 276.1619200000001 C 554.540586 276.1619200000001 558.458586 272.2439200000001 558.458586 267.4119200000001 C 558.458586 262.57992000000013 554.540586 258.6619200000001 549.708586 258.6619200000001 L 529.399586 258.6619200000001 L 529.403492 258.6619200000001 C 524.758992 258.7869200000001 520.891792 255.13462000000013 520.747292 250.49002000000013 L 520.747292 228.86902000000012 C 520.747292 224.03702000000013 516.829292 220.11902000000012 511.997292 220.11902000000012 L 485.892292 220.11902000000012 C 481.060292 220.11902000000012 477.142292 224.03702000000013 477.142292 228.86902000000012 L 477.142292 257.06402000000014 C 477.138386 260.8023200000001 475.571992 264.37262000000015 472.821992 266.90782000000013 C 469.825892 269.71252000000015 465.790792 271.13832000000014 461.696992 270.84142000000014 C 458.02509200000003 270.5797000000001 454.591492 268.93122000000017 452.08759200000003 266.22812000000016 C 449.58759200000003 263.52892000000014 448.20479200000005 259.97812000000016 448.22429200000005 256.29842000000014 L 448.22429200000005 197.84942000000012 C 448.34538200000003 194.78692000000012 450.91569200000004 192.39632000000012 453.982092 192.50172000000012 L 536.486092 192.50172000000012 C 542.486092 192.46656400000012 548.201092 195.05642000000012 552.127092 199.5955200000001 L 579.654092 231.7085200000001 L 579.654092 231.7046140000001 C 583.634592 236.3960140000001 589.536892 239.01321400000012 595.6850919999999 238.8101140000001 L 621.2670919999999 238.7632390000001 C 626.102992 238.75933200000011 630.0131919999999 234.8374390000001 630.009292 230.0054390000001 C 630.0053859999999 225.17343900000012 626.083492 221.2593390000001 621.251492 221.2632390000001 L 621.235867 221.2632390000001 L 595.337867 221.3140200000001 L 595.3339599999999 221.3140200000001 C 594.4199 221.3960510000001 593.52536 221.02105000000012 592.94336 220.3140200000001 L 565.4163599999999 188.2010200000001 L 565.4163599999999 188.2049260000001 C 558.1663599999999 179.7869260000001 547.5963599999999 174.96292600000012 536.48636 175.0019260000001 L 453.98235999999997 175.0019260000001 C 447.86906 174.9550510000001 441.99035999999995 177.3339260000001 437.63036 181.6191260000001 C 433.27096 185.90032600000012 430.78656 191.74012600000012 430.72416 197.8491260000001 z M 396.853 233.752 C 396.860812 228.62310000000002 401.0171 224.4668 406.146 224.459 L 430.72 224.459 L 430.72 246.9 L 406.146 246.903906 C 401.0171 246.896093 396.86080000000004 242.73980600000002 396.853 237.610906 z M 456.994 304.35 C 462.1229 304.357813 466.28310000000005 308.51410000000004 466.2909 313.64300000000003 L 466.2909 317.5024 C 466.283087 322.6313 462.1229 326.7876 456.994 326.79540000000003 L 406.146 326.79540000000003 C 401.0171 326.78758700000003 396.86080000000004 322.6313 396.853 317.5024 L 396.853 313.64300000000003 C 396.860812 308.51410000000004 401.0171 304.35780000000005 406.146 304.35 z M 419.66200000000003 358.752 C 415.7948 358.74809400000004 412.66200000000003 355.61920000000003 412.65810000000005 351.752 L 412.65810000000005 351.29497000000003 C 412.662006 347.43167000000005 415.79480000000007 344.29887 419.66200000000003 344.29497000000003 L 467.19300000000004 344.29497000000003 C 471.0563 344.298876 474.18520000000007 347.43167000000005 474.18910000000005 351.29497000000003 L 474.18910000000005 351.752 C 474.1851940000001 355.6153 471.05240000000003 358.7481 467.19300000000004 358.752 z M 449.713 285.6 C 448.3263 286.4125 446.7482 286.84220000000005 445.14270000000005 286.85 L 394.2907000000001 286.85 C 389.1618000000001 286.84609400000005 385.0055000000001 282.6859 384.99770000000007 277.557 L 384.99770000000007 273.69370000000004 L 384.99770000000007 273.697606 C 385.00551200000007 268.568706 389.1618000000001 264.408506 394.2907000000001 264.404606 L 431.7907000000001 264.404606 C 434.24770000000007 273.818706 440.83760000000007 281.611606 449.7127000000001 285.599606 z" stroke-linecap="round" />
</g>
</g>
</g>
</svg>